<svg xmlns="http://www.w3.org/2000/svg" xmlns:xlink="http://www.w3.org/1999/xlink" width="907" zoomAndPan="magnify" viewBox="0 0 680.25 193.499995" height="258" preserveAspectRatio="xMidYMid meet" version="1.0"><defs><g/></defs><path stroke-linecap="butt" transform="matrix(0, 0.748067, -0.748067, 0, 18.838247, 20.921928)" fill="none" stroke-linejoin="miter" d="M -0.0000706386 1.501741 L 221.2107 1.501741 " stroke="#ffffff" stroke-width="3" stroke-opacity="1" stroke-miterlimit="4"/><g fill="#ffffff" fill-opacity="1"><g transform="translate(37.30739, 123.331239)"><g><path d="M 74 0 L 70.109375 -48.765625 L 69.609375 -48.765625 L 52.765625 -0.5 L 41.59375 -0.5 L 24.734375 -48.765625 L 24.234375 -48.765625 L 20.34375 0 L 1.59375 0 L 8.96875 -82.28125 L 28.921875 -82.28125 L 47.171875 -34.8125 L 65.421875 -82.28125 L 85.375 -82.28125 L 92.75 0 Z M 74 0 "/></g></g></g><g fill="#ffffff" fill-opacity="1"><g transform="translate(131.659937, 123.331239)"><g><path d="M 2.296875 -41.1875 C 2.296875 -53.09375 6.347656 -63.164062 14.453125 -71.40625 C 22.566406 -79.65625 32.34375 -83.78125 43.78125 -83.78125 C 55.28125 -83.78125 65.050781 -79.671875 73.09375 -71.453125 C 81.144531 -63.242188 85.171875 -53.15625 85.171875 -41.1875 C 85.171875 -29.15625 81.210938 -19.03125 73.296875 -10.8125 C 65.390625 -2.601562 55.550781 1.5 43.78125 1.5 C 31.75 1.5 21.828125 -2.570312 14.015625 -10.71875 C 6.203125 -18.863281 2.296875 -29.019531 2.296875 -41.1875 Z M 22.546875 -41.1875 C 22.546875 -36.863281 23.207031 -32.921875 24.53125 -29.359375 C 25.863281 -25.804688 28.191406 -22.800781 31.515625 -20.34375 C 34.835938 -17.882812 38.925781 -16.65625 43.78125 -16.65625 C 50.757812 -16.65625 56.023438 -19.046875 59.578125 -23.828125 C 63.140625 -28.617188 64.921875 -34.40625 64.921875 -41.1875 C 64.921875 -47.90625 63.109375 -53.671875 59.484375 -58.484375 C 55.867188 -63.304688 50.632812 -65.71875 43.78125 -65.71875 C 37 -65.71875 31.765625 -63.304688 28.078125 -58.484375 C 24.390625 -53.671875 22.546875 -47.90625 22.546875 -41.1875 Z M 22.546875 -41.1875 "/></g></g></g><g fill="#ffffff" fill-opacity="1"><g transform="translate(219.130534, 123.331239)"><g><path d="M 47.765625 -82.28125 L 80.984375 0 L 60.84375 0 L 54.75 -16.453125 L 23.4375 -16.453125 L 17.359375 0 L -2.796875 0 L 30.421875 -82.28125 Z M 48.375 -32.90625 L 39.203125 -56.84375 L 39 -56.84375 L 29.828125 -32.90625 Z M 48.375 -32.90625 "/></g></g></g><g fill="#ffffff" fill-opacity="1"><g transform="translate(297.325447, 123.331239)"><g><path d="M 24.734375 -82.28125 L 24.734375 -16.453125 L 53.0625 -16.453125 L 53.0625 0 L 5.984375 0 L 5.984375 -82.28125 Z M 24.734375 -82.28125 "/></g></g></g><g fill="#ffffff" fill-opacity="1"><g transform="translate(353.677663, 123.331239)"><g><path d="M 5.984375 -82.28125 L 31.515625 -82.28125 C 39.222656 -82.28125 45.367188 -80.632812 49.953125 -77.34375 C 54.546875 -74.050781 56.84375 -68.71875 56.84375 -61.34375 C 56.84375 -53.09375 53.421875 -47.207031 46.578125 -43.6875 C 58.273438 -41.625 64.125 -34.707031 64.125 -22.9375 C 64.125 -16.019531 61.726562 -10.46875 56.9375 -6.28125 C 52.15625 -2.09375 45.578125 0 37.203125 0 L 5.984375 0 Z M 24.734375 -50.0625 L 26.234375 -50.0625 C 30.421875 -50.0625 33.546875 -50.789062 35.609375 -52.25 C 37.671875 -53.71875 38.703125 -56.113281 38.703125 -59.4375 C 38.703125 -65.019531 34.546875 -67.8125 26.234375 -67.8125 L 24.734375 -67.8125 Z M 24.734375 -14.46875 L 30.625 -14.46875 C 39.789062 -14.46875 44.375 -17.523438 44.375 -23.640625 C 44.375 -27.296875 43.226562 -29.921875 40.9375 -31.515625 C 38.644531 -33.109375 35.207031 -33.90625 30.625 -33.90625 L 24.734375 -33.90625 Z M 24.734375 -14.46875 "/></g></g></g><g fill="#ffffff" fill-opacity="1"><g transform="translate(420.103443, 123.331239)"><g><path d="M 2.296875 -41.1875 C 2.296875 -53.09375 6.347656 -63.164062 14.453125 -71.40625 C 22.566406 -79.65625 32.34375 -83.78125 43.78125 -83.78125 C 55.28125 -83.78125 65.050781 -79.671875 73.09375 -71.453125 C 81.144531 -63.242188 85.171875 -53.15625 85.171875 -41.1875 C 85.171875 -29.15625 81.210938 -19.03125 73.296875 -10.8125 C 65.390625 -2.601562 55.550781 1.5 43.78125 1.5 C 31.75 1.5 21.828125 -2.570312 14.015625 -10.71875 C 6.203125 -18.863281 2.296875 -29.019531 2.296875 -41.1875 Z M 22.546875 -41.1875 C 22.546875 -36.863281 23.207031 -32.921875 24.53125 -29.359375 C 25.863281 -25.804688 28.191406 -22.800781 31.515625 -20.34375 C 34.835938 -17.882812 38.925781 -16.65625 43.78125 -16.65625 C 50.757812 -16.65625 56.023438 -19.046875 59.578125 -23.828125 C 63.140625 -28.617188 64.921875 -34.40625 64.921875 -41.1875 C 64.921875 -47.90625 63.109375 -53.671875 59.484375 -58.484375 C 55.867188 -63.304688 50.632812 -65.71875 43.78125 -65.71875 C 37 -65.71875 31.765625 -63.304688 28.078125 -58.484375 C 24.390625 -53.671875 22.546875 -47.90625 22.546875 -41.1875 Z M 22.546875 -41.1875 "/></g></g></g><g fill="#ffffff" fill-opacity="1"><g transform="translate(507.57404, 123.331239)"><g><path d="M 47.765625 -82.28125 L 80.984375 0 L 60.84375 0 L 54.75 -16.453125 L 23.4375 -16.453125 L 17.359375 0 L -2.796875 0 L 30.421875 -82.28125 Z M 48.375 -32.90625 L 39.203125 -56.84375 L 39 -56.84375 L 29.828125 -32.90625 Z M 48.375 -32.90625 "/></g></g></g><g fill="#ffffff" fill-opacity="1"><g transform="translate(585.768953, 123.331239)"><g><path d="M 24.734375 -82.28125 L 24.734375 -16.453125 L 53.0625 -16.453125 L 53.0625 0 L 5.984375 0 L 5.984375 -82.28125 Z M 24.734375 -82.28125 "/></g></g></g><g fill="#ffffff" fill-opacity="1"><g transform="translate(41.854234, 163.85156)"><g><path d="M 7.4375 -15.65625 C 9.019531 -15.65625 10.378906 -15.367188 11.515625 -14.796875 C 12.660156 -14.234375 13.539062 -13.367188 14.15625 -12.203125 C 14.769531 -11.046875 15.078125 -9.585938 15.078125 -7.828125 C 15.078125 -6.066406 14.769531 -4.601562 14.15625 -3.4375 C 13.539062 -2.28125 12.660156 -1.414062 11.515625 -0.84375 C 10.378906 -0.28125 9.019531 0 7.4375 0 L 2.375 0 L 2.375 -15.65625 Z M 7.25 -1.5625 C 8.5625 -1.5625 9.644531 -1.765625 10.5 -2.171875 C 11.351562 -2.578125 12 -3.238281 12.4375 -4.15625 C 12.882812 -5.082031 13.109375 -6.304688 13.109375 -7.828125 C 13.109375 -9.359375 12.882812 -10.582031 12.4375 -11.5 C 12 -12.414062 11.351562 -13.078125 10.5 -13.484375 C 9.644531 -13.890625 8.5625 -14.09375 7.25 -14.09375 L 4.203125 -14.09375 L 4.203125 -1.5625 Z M 7.25 -1.5625 "/></g></g></g><g fill="#ffffff" fill-opacity="1"><g transform="translate(58.501612, 163.85156)"><g><path d="M 2.9375 -14.09375 C 2.5625 -14.09375 2.257812 -14.207031 2.03125 -14.4375 C 1.800781 -14.675781 1.6875 -14.972656 1.6875 -15.328125 C 1.6875 -15.679688 1.800781 -15.972656 2.03125 -16.203125 C 2.257812 -16.441406 2.5625 -16.5625 2.9375 -16.5625 C 3.300781 -16.5625 3.597656 -16.441406 3.828125 -16.203125 C 4.066406 -15.972656 4.1875 -15.679688 4.1875 -15.328125 C 4.1875 -14.972656 4.066406 -14.675781 3.828125 -14.4375 C 3.597656 -14.207031 3.300781 -14.09375 2.9375 -14.09375 Z M 2.0625 0 L 2.0625 -11.8125 L 3.796875 -11.8125 L 3.796875 0 Z M 2.0625 0 "/></g></g></g><g fill="#ffffff" fill-opacity="1"><g transform="translate(64.361409, 163.85156)"><g><path d="M 7.484375 0 L 5.078125 0 L 0.578125 -11.8125 L 2.46875 -11.8125 L 6.1875 -2 L 6.421875 -2 L 10.109375 -11.8125 L 11.953125 -11.8125 Z M 7.484375 0 "/></g></g></g><g fill="#ffffff" fill-opacity="1"><g transform="translate(76.884442, 163.85156)"><g><path d="M 11.265625 -5.5 L 3.140625 -5.5 C 3.191406 -4.070312 3.535156 -3.019531 4.171875 -2.34375 C 4.804688 -1.675781 5.679688 -1.34375 6.796875 -1.34375 C 7.640625 -1.34375 8.316406 -1.488281 8.828125 -1.78125 C 9.347656 -2.082031 9.753906 -2.554688 10.046875 -3.203125 L 10.265625 -3.203125 L 11.40625 -2.53125 C 11.0625 -1.675781 10.515625 -1.003906 9.765625 -0.515625 C 9.015625 -0.0234375 8.023438 0.21875 6.796875 0.21875 C 5.660156 0.21875 4.679688 -0.00390625 3.859375 -0.453125 C 3.035156 -0.898438 2.398438 -1.578125 1.953125 -2.484375 C 1.515625 -3.398438 1.296875 -4.539062 1.296875 -5.90625 C 1.296875 -7.25 1.53125 -8.378906 2 -9.296875 C 2.46875 -10.210938 3.101562 -10.898438 3.90625 -11.359375 C 4.71875 -11.816406 5.644531 -12.046875 6.6875 -12.046875 C 8.207031 -12.046875 9.390625 -11.617188 10.234375 -10.765625 C 11.085938 -9.910156 11.519531 -8.644531 11.53125 -6.96875 C 11.53125 -6.3125 11.515625 -5.867188 11.484375 -5.640625 Z M 9.796875 -6.96875 C 9.773438 -8.21875 9.5 -9.128906 8.96875 -9.703125 C 8.4375 -10.273438 7.675781 -10.5625 6.6875 -10.5625 C 5.65625 -10.5625 4.84375 -10.273438 4.25 -9.703125 C 3.664062 -9.128906 3.3125 -8.21875 3.1875 -6.96875 Z M 9.796875 -6.96875 "/></g></g></g><g fill="#ffffff" fill-opacity="1"><g transform="translate(89.482457, 163.85156)"><g/></g></g><g fill="#ffffff" fill-opacity="1"><g transform="translate(94.860181, 163.85156)"><g><path d="M 2.9375 -14.09375 C 2.5625 -14.09375 2.257812 -14.207031 2.03125 -14.4375 C 1.800781 -14.675781 1.6875 -14.972656 1.6875 -15.328125 C 1.6875 -15.679688 1.800781 -15.972656 2.03125 -16.203125 C 2.257812 -16.441406 2.5625 -16.5625 2.9375 -16.5625 C 3.300781 -16.5625 3.597656 -16.441406 3.828125 -16.203125 C 4.066406 -15.972656 4.1875 -15.679688 4.1875 -15.328125 C 4.1875 -14.972656 4.066406 -14.675781 3.828125 -14.4375 C 3.597656 -14.207031 3.300781 -14.09375 2.9375 -14.09375 Z M 2.0625 0 L 2.0625 -11.8125 L 3.796875 -11.8125 L 3.796875 0 Z M 2.0625 0 "/></g></g></g><g fill="#ffffff" fill-opacity="1"><g transform="translate(100.719978, 163.85156)"><g><path d="M 2.0625 0 L 2.0625 -11.8125 L 3.71875 -11.8125 L 3.71875 -9.96875 L 3.9375 -9.90625 C 4.332031 -10.601562 4.832031 -11.132812 5.4375 -11.5 C 6.050781 -11.863281 6.800781 -12.046875 7.6875 -12.046875 C 9.101562 -12.046875 10.128906 -11.679688 10.765625 -10.953125 C 11.410156 -10.222656 11.734375 -9.109375 11.734375 -7.609375 L 11.734375 0 L 9.984375 0 L 9.984375 -7.5625 C 9.984375 -8.28125 9.890625 -8.851562 9.703125 -9.28125 C 9.523438 -9.71875 9.242188 -10.03125 8.859375 -10.21875 C 8.484375 -10.414062 7.984375 -10.515625 7.359375 -10.515625 C 6.296875 -10.515625 5.4375 -10.160156 4.78125 -9.453125 C 4.125 -8.753906 3.796875 -7.625 3.796875 -6.0625 L 3.796875 0 Z M 2.0625 0 "/></g></g></g><g fill="#ffffff" fill-opacity="1"><g transform="translate(114.324978, 163.85156)"><g><path d="M 7.984375 -1.875 L 8.546875 -0.625 C 8.265625 -0.34375 7.894531 -0.132812 7.4375 0 C 6.988281 0.144531 6.503906 0.21875 5.984375 0.21875 C 3.722656 0.21875 2.59375 -0.921875 2.59375 -3.203125 L 2.59375 -10.390625 L 0.53125 -10.390625 L 0.53125 -11.828125 L 2.59375 -11.828125 L 2.59375 -14.328125 L 4.34375 -14.609375 L 4.34375 -11.828125 L 8.140625 -11.828125 L 8.140625 -10.390625 L 4.34375 -10.390625 L 4.34375 -3.375 C 4.34375 -2.019531 4.929688 -1.34375 6.109375 -1.34375 C 6.742188 -1.34375 7.296875 -1.519531 7.765625 -1.875 Z M 7.984375 -1.875 "/></g></g></g><g fill="#ffffff" fill-opacity="1"><g transform="translate(123.323561, 163.85156)"><g><path d="M 6.78125 0.21875 C 5.664062 0.21875 4.695312 -0.015625 3.875 -0.484375 C 3.050781 -0.953125 2.414062 -1.644531 1.96875 -2.5625 C 1.519531 -3.476562 1.296875 -4.59375 1.296875 -5.90625 C 1.296875 -7.207031 1.519531 -8.316406 1.96875 -9.234375 C 2.414062 -10.160156 3.050781 -10.859375 3.875 -11.328125 C 4.695312 -11.804688 5.664062 -12.046875 6.78125 -12.046875 C 7.894531 -12.046875 8.863281 -11.804688 9.6875 -11.328125 C 10.507812 -10.859375 11.144531 -10.160156 11.59375 -9.234375 C 12.039062 -8.316406 12.265625 -7.207031 12.265625 -5.90625 C 12.265625 -4.59375 12.039062 -3.476562 11.59375 -2.5625 C 11.144531 -1.644531 10.507812 -0.953125 9.6875 -0.484375 C 8.863281 -0.015625 7.894531 0.21875 6.78125 0.21875 Z M 6.78125 -1.34375 C 7.957031 -1.34375 8.859375 -1.710938 9.484375 -2.453125 C 10.109375 -3.191406 10.421875 -4.34375 10.421875 -5.90625 C 10.421875 -7.46875 10.109375 -8.617188 9.484375 -9.359375 C 8.859375 -10.097656 7.957031 -10.46875 6.78125 -10.46875 C 5.601562 -10.46875 4.695312 -10.09375 4.0625 -9.34375 C 3.4375 -8.601562 3.125 -7.457031 3.125 -5.90625 C 3.125 -4.34375 3.4375 -3.191406 4.0625 -2.453125 C 4.695312 -1.710938 5.601562 -1.34375 6.78125 -1.34375 Z M 6.78125 -1.34375 "/></g></g></g><g fill="#ffffff" fill-opacity="1"><g transform="translate(136.88571, 163.85156)"><g/></g></g><g fill="#ffffff" fill-opacity="1"><g transform="translate(142.263434, 163.85156)"><g><path d="M 7.96875 -15.65625 C 9.050781 -15.65625 9.976562 -15.460938 10.75 -15.078125 C 11.519531 -14.691406 12.101562 -14.140625 12.5 -13.421875 C 12.90625 -12.703125 13.109375 -11.859375 13.109375 -10.890625 C 13.109375 -9.921875 12.90625 -9.078125 12.5 -8.359375 C 12.101562 -7.648438 11.519531 -7.097656 10.75 -6.703125 C 9.976562 -6.316406 9.050781 -6.125 7.96875 -6.125 L 4.203125 -6.125 L 4.203125 0 L 2.375 0 L 2.375 -15.65625 Z M 7.921875 -7.703125 C 10.097656 -7.703125 11.1875 -8.765625 11.1875 -10.890625 C 11.1875 -13.023438 10.097656 -14.09375 7.921875 -14.09375 L 4.203125 -14.09375 L 4.203125 -7.703125 Z M 7.921875 -7.703125 "/></g></g></g><g fill="#ffffff" fill-opacity="1"><g transform="translate(156.543334, 163.85156)"><g><path d="M 4.875 0.21875 C 3.707031 0.21875 2.796875 -0.0820312 2.140625 -0.6875 C 1.492188 -1.289062 1.171875 -2.15625 1.171875 -3.28125 C 1.171875 -3.988281 1.3125 -4.582031 1.59375 -5.0625 C 1.882812 -5.539062 2.332031 -5.929688 2.9375 -6.234375 C 3.550781 -6.535156 4.347656 -6.769531 5.328125 -6.9375 C 6.179688 -7.082031 6.832031 -7.242188 7.28125 -7.421875 C 7.726562 -7.597656 8.023438 -7.796875 8.171875 -8.015625 C 8.328125 -8.242188 8.40625 -8.523438 8.40625 -8.859375 C 8.40625 -9.390625 8.222656 -9.796875 7.859375 -10.078125 C 7.492188 -10.367188 6.898438 -10.515625 6.078125 -10.515625 C 5.316406 -10.515625 4.660156 -10.363281 4.109375 -10.0625 C 3.566406 -9.769531 3.066406 -9.332031 2.609375 -8.75 L 2.40625 -8.75 L 1.546875 -9.96875 C 2.046875 -10.601562 2.679688 -11.109375 3.453125 -11.484375 C 4.222656 -11.859375 5.097656 -12.046875 6.078125 -12.046875 C 7.472656 -12.046875 8.5 -11.738281 9.15625 -11.125 C 9.820312 -10.507812 10.15625 -9.664062 10.15625 -8.59375 L 10.15625 -2.328125 C 10.15625 -1.671875 10.429688 -1.34375 10.984375 -1.34375 C 11.171875 -1.34375 11.351562 -1.375 11.53125 -1.4375 L 11.671875 -1.390625 L 11.875 -0.1875 C 11.75 -0.09375 11.578125 -0.0234375 11.359375 0.015625 C 11.148438 0.0546875 10.9375 0.078125 10.71875 0.078125 C 10.070312 0.078125 9.582031 -0.0625 9.25 -0.34375 C 8.914062 -0.625 8.703125 -1.046875 8.609375 -1.609375 L 8.390625 -1.625 C 8.054688 -1.007812 7.601562 -0.546875 7.03125 -0.234375 C 6.457031 0.0664062 5.738281 0.21875 4.875 0.21875 Z M 5.265625 -1.171875 C 5.921875 -1.171875 6.488281 -1.320312 6.96875 -1.625 C 7.445312 -1.925781 7.816406 -2.351562 8.078125 -2.90625 C 8.335938 -3.457031 8.46875 -4.09375 8.46875 -4.8125 L 8.46875 -6.3125 L 8.265625 -6.359375 C 7.992188 -6.171875 7.671875 -6.015625 7.296875 -5.890625 C 6.921875 -5.765625 6.390625 -5.648438 5.703125 -5.546875 C 5.023438 -5.453125 4.484375 -5.304688 4.078125 -5.109375 C 3.671875 -4.921875 3.378906 -4.675781 3.203125 -4.375 C 3.035156 -4.082031 2.953125 -3.71875 2.953125 -3.28125 C 2.953125 -2.59375 3.15625 -2.066406 3.5625 -1.703125 C 3.96875 -1.347656 4.535156 -1.171875 5.265625 -1.171875 Z M 5.265625 -1.171875 "/></g></g></g><g fill="#ffffff" fill-opacity="1"><g transform="translate(168.766414, 163.85156)"><g><path d="M 2.0625 0 L 2.0625 -11.8125 L 3.71875 -11.8125 L 3.71875 -9.96875 L 3.9375 -9.90625 C 4.488281 -11.25 5.523438 -11.921875 7.046875 -11.921875 C 7.859375 -11.921875 8.460938 -11.773438 8.859375 -11.484375 L 8.40625 -10 L 8.1875 -9.96875 C 7.75 -10.1875 7.265625 -10.296875 6.734375 -10.296875 C 5.796875 -10.296875 5.070312 -9.941406 4.5625 -9.234375 C 4.050781 -8.523438 3.796875 -7.378906 3.796875 -5.796875 L 3.796875 0 Z M 2.0625 0 "/></g></g></g><g fill="#ffffff" fill-opacity="1"><g transform="translate(177.893548, 163.85156)"><g><path d="M 4.875 0.21875 C 3.707031 0.21875 2.796875 -0.0820312 2.140625 -0.6875 C 1.492188 -1.289062 1.171875 -2.15625 1.171875 -3.28125 C 1.171875 -3.988281 1.3125 -4.582031 1.59375 -5.0625 C 1.882812 -5.539062 2.332031 -5.929688 2.9375 -6.234375 C 3.550781 -6.535156 4.347656 -6.769531 5.328125 -6.9375 C 6.179688 -7.082031 6.832031 -7.242188 7.28125 -7.421875 C 7.726562 -7.597656 8.023438 -7.796875 8.171875 -8.015625 C 8.328125 -8.242188 8.40625 -8.523438 8.40625 -8.859375 C 8.40625 -9.390625 8.222656 -9.796875 7.859375 -10.078125 C 7.492188 -10.367188 6.898438 -10.515625 6.078125 -10.515625 C 5.316406 -10.515625 4.660156 -10.363281 4.109375 -10.0625 C 3.566406 -9.769531 3.066406 -9.332031 2.609375 -8.75 L 2.40625 -8.75 L 1.546875 -9.96875 C 2.046875 -10.601562 2.679688 -11.109375 3.453125 -11.484375 C 4.222656 -11.859375 5.097656 -12.046875 6.078125 -12.046875 C 7.472656 -12.046875 8.5 -11.738281 9.15625 -11.125 C 9.820312 -10.507812 10.15625 -9.664062 10.15625 -8.59375 L 10.15625 -2.328125 C 10.15625 -1.671875 10.429688 -1.34375 10.984375 -1.34375 C 11.171875 -1.34375 11.351562 -1.375 11.53125 -1.4375 L 11.671875 -1.390625 L 11.875 -0.1875 C 11.75 -0.09375 11.578125 -0.0234375 11.359375 0.015625 C 11.148438 0.0546875 10.9375 0.078125 10.71875 0.078125 C 10.070312 0.078125 9.582031 -0.0625 9.25 -0.34375 C 8.914062 -0.625 8.703125 -1.046875 8.609375 -1.609375 L 8.390625 -1.625 C 8.054688 -1.007812 7.601562 -0.546875 7.03125 -0.234375 C 6.457031 0.0664062 5.738281 0.21875 4.875 0.21875 Z M 5.265625 -1.171875 C 5.921875 -1.171875 6.488281 -1.320312 6.96875 -1.625 C 7.445312 -1.925781 7.816406 -2.351562 8.078125 -2.90625 C 8.335938 -3.457031 8.46875 -4.09375 8.46875 -4.8125 L 8.46875 -6.3125 L 8.265625 -6.359375 C 7.992188 -6.171875 7.671875 -6.015625 7.296875 -5.890625 C 6.921875 -5.765625 6.390625 -5.648438 5.703125 -5.546875 C 5.023438 -5.453125 4.484375 -5.304688 4.078125 -5.109375 C 3.671875 -4.921875 3.378906 -4.675781 3.203125 -4.375 C 3.035156 -4.082031 2.953125 -3.71875 2.953125 -3.28125 C 2.953125 -2.59375 3.15625 -2.066406 3.5625 -1.703125 C 3.96875 -1.347656 4.535156 -1.171875 5.265625 -1.171875 Z M 5.265625 -1.171875 "/></g></g></g><g fill="#ffffff" fill-opacity="1"><g transform="translate(190.116628, 163.85156)"><g><path d="M 6.125 0.21875 C 5.175781 0.21875 4.335938 -0.00390625 3.609375 -0.453125 C 2.890625 -0.910156 2.320312 -1.59375 1.90625 -2.5 C 1.5 -3.414062 1.296875 -4.550781 1.296875 -5.90625 C 1.296875 -7.25 1.507812 -8.378906 1.9375 -9.296875 C 2.363281 -10.210938 2.953125 -10.898438 3.703125 -11.359375 C 4.460938 -11.816406 5.335938 -12.046875 6.328125 -12.046875 C 7.117188 -12.046875 7.828125 -11.894531 8.453125 -11.59375 C 9.078125 -11.300781 9.613281 -10.816406 10.0625 -10.140625 L 10.296875 -10.171875 L 10.296875 -16.5625 L 12.046875 -16.5625 L 12.046875 0 L 10.296875 0 L 10.296875 -1.71875 L 10.0625 -1.765625 C 9.675781 -1.179688 9.15625 -0.703125 8.5 -0.328125 C 7.84375 0.0351562 7.050781 0.21875 6.125 0.21875 Z M 6.671875 -1.34375 C 7.773438 -1.34375 8.65625 -1.71875 9.3125 -2.46875 C 9.96875 -3.21875 10.296875 -4.363281 10.296875 -5.90625 C 10.296875 -7.445312 9.96875 -8.59375 9.3125 -9.34375 C 8.65625 -10.09375 7.773438 -10.46875 6.671875 -10.46875 C 5.535156 -10.46875 4.660156 -10.097656 4.046875 -9.359375 C 3.429688 -8.628906 3.125 -7.476562 3.125 -5.90625 C 3.125 -2.863281 4.304688 -1.34375 6.671875 -1.34375 Z M 6.671875 -1.34375 "/></g></g></g><g fill="#ffffff" fill-opacity="1"><g transform="translate(204.225126, 163.85156)"><g><path d="M 2.9375 -14.09375 C 2.5625 -14.09375 2.257812 -14.207031 2.03125 -14.4375 C 1.800781 -14.675781 1.6875 -14.972656 1.6875 -15.328125 C 1.6875 -15.679688 1.800781 -15.972656 2.03125 -16.203125 C 2.257812 -16.441406 2.5625 -16.5625 2.9375 -16.5625 C 3.300781 -16.5625 3.597656 -16.441406 3.828125 -16.203125 C 4.066406 -15.972656 4.1875 -15.679688 4.1875 -15.328125 C 4.1875 -14.972656 4.066406 -14.675781 3.828125 -14.4375 C 3.597656 -14.207031 3.300781 -14.09375 2.9375 -14.09375 Z M 2.0625 0 L 2.0625 -11.8125 L 3.796875 -11.8125 L 3.796875 0 Z M 2.0625 0 "/></g></g></g><g fill="#ffffff" fill-opacity="1"><g transform="translate(210.084923, 163.85156)"><g><path d="M 5.390625 0.21875 C 4.648438 0.21875 3.960938 0.125 3.328125 -0.0625 C 2.691406 -0.257812 2.15625 -0.53125 1.71875 -0.875 C 1.289062 -1.21875 0.984375 -1.601562 0.796875 -2.03125 L 1.828125 -3.109375 L 2.0625 -3.109375 C 2.445312 -2.523438 2.910156 -2.082031 3.453125 -1.78125 C 3.992188 -1.488281 4.640625 -1.34375 5.390625 -1.34375 C 6.253906 -1.34375 6.914062 -1.507812 7.375 -1.84375 C 7.832031 -2.1875 8.0625 -2.660156 8.0625 -3.265625 C 8.0625 -3.734375 7.921875 -4.117188 7.640625 -4.421875 C 7.367188 -4.722656 6.925781 -4.945312 6.3125 -5.09375 L 4.3125 -5.59375 C 3.25 -5.851562 2.472656 -6.257812 1.984375 -6.8125 C 1.492188 -7.363281 1.25 -8.050781 1.25 -8.875 C 1.25 -9.519531 1.410156 -10.078125 1.734375 -10.546875 C 2.066406 -11.023438 2.539062 -11.394531 3.15625 -11.65625 C 3.78125 -11.914062 4.515625 -12.046875 5.359375 -12.046875 C 6.453125 -12.046875 7.3125 -11.890625 7.9375 -11.578125 C 8.5625 -11.273438 9.046875 -10.851562 9.390625 -10.3125 L 8.40625 -9.34375 L 8.1875 -9.34375 C 7.8125 -9.78125 7.398438 -10.09375 6.953125 -10.28125 C 6.503906 -10.476562 5.972656 -10.578125 5.359375 -10.578125 C 4.585938 -10.578125 3.992188 -10.4375 3.578125 -10.15625 C 3.160156 -9.882812 2.953125 -9.484375 2.953125 -8.953125 C 2.953125 -8.472656 3.097656 -8.085938 3.390625 -7.796875 C 3.679688 -7.503906 4.191406 -7.269531 4.921875 -7.09375 L 6.890625 -6.625 C 7.921875 -6.375 8.660156 -5.96875 9.109375 -5.40625 C 9.566406 -4.84375 9.796875 -4.132812 9.796875 -3.28125 C 9.796875 -2.59375 9.628906 -1.984375 9.296875 -1.453125 C 8.972656 -0.929688 8.476562 -0.519531 7.8125 -0.21875 C 7.15625 0.0703125 6.347656 0.21875 5.390625 0.21875 Z M 5.390625 0.21875 "/></g></g></g><g fill="#ffffff" fill-opacity="1"><g transform="translate(221.011773, 163.85156)"><g><path d="M 11.265625 -5.5 L 3.140625 -5.5 C 3.191406 -4.070312 3.535156 -3.019531 4.171875 -2.34375 C 4.804688 -1.675781 5.679688 -1.34375 6.796875 -1.34375 C 7.640625 -1.34375 8.316406 -1.488281 8.828125 -1.78125 C 9.347656 -2.082031 9.753906 -2.554688 10.046875 -3.203125 L 10.265625 -3.203125 L 11.40625 -2.53125 C 11.0625 -1.675781 10.515625 -1.003906 9.765625 -0.515625 C 9.015625 -0.0234375 8.023438 0.21875 6.796875 0.21875 C 5.660156 0.21875 4.679688 -0.00390625 3.859375 -0.453125 C 3.035156 -0.898438 2.398438 -1.578125 1.953125 -2.484375 C 1.515625 -3.398438 1.296875 -4.539062 1.296875 -5.90625 C 1.296875 -7.25 1.53125 -8.378906 2 -9.296875 C 2.46875 -10.210938 3.101562 -10.898438 3.90625 -11.359375 C 4.71875 -11.816406 5.644531 -12.046875 6.6875 -12.046875 C 8.207031 -12.046875 9.390625 -11.617188 10.234375 -10.765625 C 11.085938 -9.910156 11.519531 -8.644531 11.53125 -6.96875 C 11.53125 -6.3125 11.515625 -5.867188 11.484375 -5.640625 Z M 9.796875 -6.96875 C 9.773438 -8.21875 9.5 -9.128906 8.96875 -9.703125 C 8.4375 -10.273438 7.675781 -10.5625 6.6875 -10.5625 C 5.65625 -10.5625 4.84375 -10.273438 4.25 -9.703125 C 3.664062 -9.128906 3.3125 -8.21875 3.1875 -6.96875 Z M 9.796875 -6.96875 "/></g></g></g><g fill="#ffffff" fill-opacity="1"><g transform="translate(233.609789, 163.85156)"><g><path d="M 0.671875 3.265625 C 1.296875 2.859375 1.820312 2.382812 2.25 1.84375 C 2.675781 1.3125 2.894531 0.722656 2.90625 0.078125 C 2.488281 0.078125 2.160156 -0.03125 1.921875 -0.25 C 1.679688 -0.476562 1.5625 -0.785156 1.5625 -1.171875 C 1.5625 -1.535156 1.675781 -1.835938 1.90625 -2.078125 C 2.144531 -2.316406 2.457031 -2.4375 2.84375 -2.4375 C 3.257812 -2.4375 3.597656 -2.289062 3.859375 -2 C 4.117188 -1.707031 4.25 -1.25 4.25 -0.625 C 4.25 0.488281 4.007812 1.425781 3.53125 2.1875 C 3.050781 2.945312 2.34375 3.644531 1.40625 4.28125 Z M 0.671875 3.265625 "/></g></g></g><g fill="#ffffff" fill-opacity="1"><g transform="translate(239.426735, 163.85156)"><g/></g></g><g fill="#ffffff" fill-opacity="1"><g transform="translate(244.804471, 163.85156)"><g><path d="M 6.84375 0 L 4.4375 0 L 0.84375 -15.65625 L 2.671875 -15.65625 L 5.609375 -2.703125 L 5.875 -2.703125 L 9.390625 -15.65625 L 11.09375 -15.65625 L 14.609375 -2.703125 L 14.875 -2.703125 L 17.828125 -15.65625 L 19.609375 -15.65625 L 16.03125 0 L 13.609375 0 L 10.34375 -11.859375 L 10.109375 -11.859375 Z M 6.84375 0 "/></g></g></g><g fill="#ffffff" fill-opacity="1"><g transform="translate(265.254815, 163.85156)"><g><path d="M 2.0625 0 L 2.0625 -16.5625 L 3.796875 -16.5625 L 3.796875 -10.140625 L 4.03125 -10.09375 C 4.875 -11.394531 6.09375 -12.046875 7.6875 -12.046875 C 9.101562 -12.046875 10.128906 -11.679688 10.765625 -10.953125 C 11.410156 -10.222656 11.734375 -9.109375 11.734375 -7.609375 L 11.734375 0 L 9.984375 0 L 9.984375 -7.5625 C 9.984375 -8.28125 9.890625 -8.851562 9.703125 -9.28125 C 9.523438 -9.71875 9.242188 -10.03125 8.859375 -10.21875 C 8.484375 -10.414062 7.984375 -10.515625 7.359375 -10.515625 C 6.285156 -10.515625 5.421875 -10.164062 4.765625 -9.46875 C 4.117188 -8.78125 3.796875 -7.644531 3.796875 -6.0625 L 3.796875 0 Z M 2.0625 0 "/></g></g></g><g fill="#ffffff" fill-opacity="1"><g transform="translate(278.859827, 163.85156)"><g><path d="M 11.265625 -5.5 L 3.140625 -5.5 C 3.191406 -4.070312 3.535156 -3.019531 4.171875 -2.34375 C 4.804688 -1.675781 5.679688 -1.34375 6.796875 -1.34375 C 7.640625 -1.34375 8.316406 -1.488281 8.828125 -1.78125 C 9.347656 -2.082031 9.753906 -2.554688 10.046875 -3.203125 L 10.265625 -3.203125 L 11.40625 -2.53125 C 11.0625 -1.675781 10.515625 -1.003906 9.765625 -0.515625 C 9.015625 -0.0234375 8.023438 0.21875 6.796875 0.21875 C 5.660156 0.21875 4.679688 -0.00390625 3.859375 -0.453125 C 3.035156 -0.898438 2.398438 -1.578125 1.953125 -2.484375 C 1.515625 -3.398438 1.296875 -4.539062 1.296875 -5.90625 C 1.296875 -7.25 1.53125 -8.378906 2 -9.296875 C 2.46875 -10.210938 3.101562 -10.898438 3.90625 -11.359375 C 4.71875 -11.816406 5.644531 -12.046875 6.6875 -12.046875 C 8.207031 -12.046875 9.390625 -11.617188 10.234375 -10.765625 C 11.085938 -9.910156 11.519531 -8.644531 11.53125 -6.96875 C 11.53125 -6.3125 11.515625 -5.867188 11.484375 -5.640625 Z M 9.796875 -6.96875 C 9.773438 -8.21875 9.5 -9.128906 8.96875 -9.703125 C 8.4375 -10.273438 7.675781 -10.5625 6.6875 -10.5625 C 5.65625 -10.5625 4.84375 -10.273438 4.25 -9.703125 C 3.664062 -9.128906 3.3125 -8.21875 3.1875 -6.96875 Z M 9.796875 -6.96875 "/></g></g></g><g fill="#ffffff" fill-opacity="1"><g transform="translate(291.457842, 163.85156)"><g><path d="M 2.0625 0 L 2.0625 -11.8125 L 3.71875 -11.8125 L 3.71875 -9.96875 L 3.9375 -9.90625 C 4.488281 -11.25 5.523438 -11.921875 7.046875 -11.921875 C 7.859375 -11.921875 8.460938 -11.773438 8.859375 -11.484375 L 8.40625 -10 L 8.1875 -9.96875 C 7.75 -10.1875 7.265625 -10.296875 6.734375 -10.296875 C 5.796875 -10.296875 5.070312 -9.941406 4.5625 -9.234375 C 4.050781 -8.523438 3.796875 -7.378906 3.796875 -5.796875 L 3.796875 0 Z M 2.0625 0 "/></g></g></g><g fill="#ffffff" fill-opacity="1"><g transform="translate(300.584976, 163.85156)"><g><path d="M 11.265625 -5.5 L 3.140625 -5.5 C 3.191406 -4.070312 3.535156 -3.019531 4.171875 -2.34375 C 4.804688 -1.675781 5.679688 -1.34375 6.796875 -1.34375 C 7.640625 -1.34375 8.316406 -1.488281 8.828125 -1.78125 C 9.347656 -2.082031 9.753906 -2.554688 10.046875 -3.203125 L 10.265625 -3.203125 L 11.40625 -2.53125 C 11.0625 -1.675781 10.515625 -1.003906 9.765625 -0.515625 C 9.015625 -0.0234375 8.023438 0.21875 6.796875 0.21875 C 5.660156 0.21875 4.679688 -0.00390625 3.859375 -0.453125 C 3.035156 -0.898438 2.398438 -1.578125 1.953125 -2.484375 C 1.515625 -3.398438 1.296875 -4.539062 1.296875 -5.90625 C 1.296875 -7.25 1.53125 -8.378906 2 -9.296875 C 2.46875 -10.210938 3.101562 -10.898438 3.90625 -11.359375 C 4.71875 -11.816406 5.644531 -12.046875 6.6875 -12.046875 C 8.207031 -12.046875 9.390625 -11.617188 10.234375 -10.765625 C 11.085938 -9.910156 11.519531 -8.644531 11.53125 -6.96875 C 11.53125 -6.3125 11.515625 -5.867188 11.484375 -5.640625 Z M 9.796875 -6.96875 C 9.773438 -8.21875 9.5 -9.128906 8.96875 -9.703125 C 8.4375 -10.273438 7.675781 -10.5625 6.6875 -10.5625 C 5.65625 -10.5625 4.84375 -10.273438 4.25 -9.703125 C 3.664062 -9.128906 3.3125 -8.21875 3.1875 -6.96875 Z M 9.796875 -6.96875 "/></g></g></g><g fill="#ffffff" fill-opacity="1"><g transform="translate(313.182991, 163.85156)"><g/></g></g><g fill="#ffffff" fill-opacity="1"><g transform="translate(318.560704, 163.85156)"><g><path d="M 4.203125 -7.375 L 4.203125 -1.515625 L 12.1875 -1.515625 L 12.1875 0 L 2.375 0 L 2.375 -15.65625 L 12.015625 -15.65625 L 12.015625 -14.140625 L 4.203125 -14.140625 L 4.203125 -8.90625 L 11.09375 -8.90625 L 11.09375 -7.375 Z M 4.203125 -7.375 "/></g></g></g><g fill="#ffffff" fill-opacity="1"><g transform="translate(331.790769, 163.85156)"><g><path d="M 7.484375 0 L 5.078125 0 L 0.578125 -11.8125 L 2.46875 -11.8125 L 6.1875 -2 L 6.421875 -2 L 10.109375 -11.8125 L 11.953125 -11.8125 Z M 7.484375 0 "/></g></g></g><g fill="#ffffff" fill-opacity="1"><g transform="translate(344.313813, 163.85156)"><g><path d="M 11.265625 -5.5 L 3.140625 -5.5 C 3.191406 -4.070312 3.535156 -3.019531 4.171875 -2.34375 C 4.804688 -1.675781 5.679688 -1.34375 6.796875 -1.34375 C 7.640625 -1.34375 8.316406 -1.488281 8.828125 -1.78125 C 9.347656 -2.082031 9.753906 -2.554688 10.046875 -3.203125 L 10.265625 -3.203125 L 11.40625 -2.53125 C 11.0625 -1.675781 10.515625 -1.003906 9.765625 -0.515625 C 9.015625 -0.0234375 8.023438 0.21875 6.796875 0.21875 C 5.660156 0.21875 4.679688 -0.00390625 3.859375 -0.453125 C 3.035156 -0.898438 2.398438 -1.578125 1.953125 -2.484375 C 1.515625 -3.398438 1.296875 -4.539062 1.296875 -5.90625 C 1.296875 -7.25 1.53125 -8.378906 2 -9.296875 C 2.46875 -10.210938 3.101562 -10.898438 3.90625 -11.359375 C 4.71875 -11.816406 5.644531 -12.046875 6.6875 -12.046875 C 8.207031 -12.046875 9.390625 -11.617188 10.234375 -10.765625 C 11.085938 -9.910156 11.519531 -8.644531 11.53125 -6.96875 C 11.53125 -6.3125 11.515625 -5.867188 11.484375 -5.640625 Z M 9.796875 -6.96875 C 9.773438 -8.21875 9.5 -9.128906 8.96875 -9.703125 C 8.4375 -10.273438 7.675781 -10.5625 6.6875 -10.5625 C 5.65625 -10.5625 4.84375 -10.273438 4.25 -9.703125 C 3.664062 -9.128906 3.3125 -8.21875 3.1875 -6.96875 Z M 9.796875 -6.96875 "/></g></g></g><g fill="#ffffff" fill-opacity="1"><g transform="translate(356.911829, 163.85156)"><g><path d="M 2.0625 0 L 2.0625 -11.8125 L 3.71875 -11.8125 L 3.71875 -9.96875 L 3.9375 -9.90625 C 4.488281 -11.25 5.523438 -11.921875 7.046875 -11.921875 C 7.859375 -11.921875 8.460938 -11.773438 8.859375 -11.484375 L 8.40625 -10 L 8.1875 -9.96875 C 7.75 -10.1875 7.265625 -10.296875 6.734375 -10.296875 C 5.796875 -10.296875 5.070312 -9.941406 4.5625 -9.234375 C 4.050781 -8.523438 3.796875 -7.378906 3.796875 -5.796875 L 3.796875 0 Z M 2.0625 0 "/></g></g></g><g fill="#ffffff" fill-opacity="1"><g transform="translate(366.038963, 163.85156)"><g><path d="M 2.375 5.015625 C 1.96875 5.015625 1.59375 4.976562 1.25 4.90625 C 0.90625 4.84375 0.609375 4.75 0.359375 4.625 L 0.671875 3.25 L 0.875 3.1875 C 1.039062 3.269531 1.25 3.335938 1.5 3.390625 C 1.757812 3.453125 2.023438 3.484375 2.296875 3.484375 C 2.773438 3.484375 3.171875 3.421875 3.484375 3.296875 C 3.804688 3.171875 4.078125 2.957031 4.296875 2.65625 C 4.523438 2.363281 4.734375 1.957031 4.921875 1.4375 L 5.34375 0.28125 L 0.59375 -11.8125 L 2.484375 -11.8125 L 6.203125 -2.171875 L 6.40625 -2.171875 L 10 -11.8125 L 11.796875 -11.8125 L 6.515625 1.859375 C 6.210938 2.609375 5.875 3.210938 5.5 3.671875 C 5.132812 4.140625 4.695312 4.476562 4.1875 4.6875 C 3.675781 4.90625 3.070312 5.015625 2.375 5.015625 Z M 2.375 5.015625 "/></g></g></g><g fill="#ffffff" fill-opacity="1"><g transform="translate(378.49772, 163.85156)"><g/></g></g><g fill="#ffffff" fill-opacity="1"><g transform="translate(383.875433, 163.85156)"><g><path d="M 6.84375 0 L 4.4375 0 L 0.84375 -15.65625 L 2.671875 -15.65625 L 5.609375 -2.703125 L 5.875 -2.703125 L 9.390625 -15.65625 L 11.09375 -15.65625 L 14.609375 -2.703125 L 14.875 -2.703125 L 17.828125 -15.65625 L 19.609375 -15.65625 L 16.03125 0 L 13.609375 0 L 10.34375 -11.859375 L 10.109375 -11.859375 Z M 6.84375 0 "/></g></g></g><g fill="#ffffff" fill-opacity="1"><g transform="translate(404.325777, 163.85156)"><g><path d="M 4.875 0.21875 C 3.707031 0.21875 2.796875 -0.0820312 2.140625 -0.6875 C 1.492188 -1.289062 1.171875 -2.15625 1.171875 -3.28125 C 1.171875 -3.988281 1.3125 -4.582031 1.59375 -5.0625 C 1.882812 -5.539062 2.332031 -5.929688 2.9375 -6.234375 C 3.550781 -6.535156 4.347656 -6.769531 5.328125 -6.9375 C 6.179688 -7.082031 6.832031 -7.242188 7.28125 -7.421875 C 7.726562 -7.597656 8.023438 -7.796875 8.171875 -8.015625 C 8.328125 -8.242188 8.40625 -8.523438 8.40625 -8.859375 C 8.40625 -9.390625 8.222656 -9.796875 7.859375 -10.078125 C 7.492188 -10.367188 6.898438 -10.515625 6.078125 -10.515625 C 5.316406 -10.515625 4.660156 -10.363281 4.109375 -10.0625 C 3.566406 -9.769531 3.066406 -9.332031 2.609375 -8.75 L 2.40625 -8.75 L 1.546875 -9.96875 C 2.046875 -10.601562 2.679688 -11.109375 3.453125 -11.484375 C 4.222656 -11.859375 5.097656 -12.046875 6.078125 -12.046875 C 7.472656 -12.046875 8.5 -11.738281 9.15625 -11.125 C 9.820312 -10.507812 10.15625 -9.664062 10.15625 -8.59375 L 10.15625 -2.328125 C 10.15625 -1.671875 10.429688 -1.34375 10.984375 -1.34375 C 11.171875 -1.34375 11.351562 -1.375 11.53125 -1.4375 L 11.671875 -1.390625 L 11.875 -0.1875 C 11.75 -0.09375 11.578125 -0.0234375 11.359375 0.015625 C 11.148438 0.0546875 10.9375 0.078125 10.71875 0.078125 C 10.070312 0.078125 9.582031 -0.0625 9.25 -0.34375 C 8.914062 -0.625 8.703125 -1.046875 8.609375 -1.609375 L 8.390625 -1.625 C 8.054688 -1.007812 7.601562 -0.546875 7.03125 -0.234375 C 6.457031 0.0664062 5.738281 0.21875 4.875 0.21875 Z M 5.265625 -1.171875 C 5.921875 -1.171875 6.488281 -1.320312 6.96875 -1.625 C 7.445312 -1.925781 7.816406 -2.351562 8.078125 -2.90625 C 8.335938 -3.457031 8.46875 -4.09375 8.46875 -4.8125 L 8.46875 -6.3125 L 8.265625 -6.359375 C 7.992188 -6.171875 7.671875 -6.015625 7.296875 -5.890625 C 6.921875 -5.765625 6.390625 -5.648438 5.703125 -5.546875 C 5.023438 -5.453125 4.484375 -5.304688 4.078125 -5.109375 C 3.671875 -4.921875 3.378906 -4.675781 3.203125 -4.375 C 3.035156 -4.082031 2.953125 -3.71875 2.953125 -3.28125 C 2.953125 -2.59375 3.15625 -2.066406 3.5625 -1.703125 C 3.96875 -1.347656 4.535156 -1.171875 5.265625 -1.171875 Z M 5.265625 -1.171875 "/></g></g></g><g fill="#ffffff" fill-opacity="1"><g transform="translate(416.548846, 163.85156)"><g><path d="M 7.484375 0 L 5.078125 0 L 0.578125 -11.8125 L 2.46875 -11.8125 L 6.1875 -2 L 6.421875 -2 L 10.109375 -11.8125 L 11.953125 -11.8125 Z M 7.484375 0 "/></g></g></g><g fill="#ffffff" fill-opacity="1"><g transform="translate(429.071891, 163.85156)"><g><path d="M 11.265625 -5.5 L 3.140625 -5.5 C 3.191406 -4.070312 3.535156 -3.019531 4.171875 -2.34375 C 4.804688 -1.675781 5.679688 -1.34375 6.796875 -1.34375 C 7.640625 -1.34375 8.316406 -1.488281 8.828125 -1.78125 C 9.347656 -2.082031 9.753906 -2.554688 10.046875 -3.203125 L 10.265625 -3.203125 L 11.40625 -2.53125 C 11.0625 -1.675781 10.515625 -1.003906 9.765625 -0.515625 C 9.015625 -0.0234375 8.023438 0.21875 6.796875 0.21875 C 5.660156 0.21875 4.679688 -0.00390625 3.859375 -0.453125 C 3.035156 -0.898438 2.398438 -1.578125 1.953125 -2.484375 C 1.515625 -3.398438 1.296875 -4.539062 1.296875 -5.90625 C 1.296875 -7.25 1.53125 -8.378906 2 -9.296875 C 2.46875 -10.210938 3.101562 -10.898438 3.90625 -11.359375 C 4.71875 -11.816406 5.644531 -12.046875 6.6875 -12.046875 C 8.207031 -12.046875 9.390625 -11.617188 10.234375 -10.765625 C 11.085938 -9.910156 11.519531 -8.644531 11.53125 -6.96875 C 11.53125 -6.3125 11.515625 -5.867188 11.484375 -5.640625 Z M 9.796875 -6.96875 C 9.773438 -8.21875 9.5 -9.128906 8.96875 -9.703125 C 8.4375 -10.273438 7.675781 -10.5625 6.6875 -10.5625 C 5.65625 -10.5625 4.84375 -10.273438 4.25 -9.703125 C 3.664062 -9.128906 3.3125 -8.21875 3.1875 -6.96875 Z M 9.796875 -6.96875 "/></g></g></g><g fill="#ffffff" fill-opacity="1"><g transform="translate(441.669906, 163.85156)"><g/></g></g><g fill="#ffffff" fill-opacity="1"><g transform="translate(447.047642, 163.85156)"><g><path d="M 2.375 0 L 2.375 -15.65625 L 8.296875 -15.65625 C 9.265625 -15.65625 10.082031 -15.5 10.75 -15.1875 C 11.425781 -14.882812 11.929688 -14.445312 12.265625 -13.875 C 12.609375 -13.3125 12.78125 -12.640625 12.78125 -11.859375 C 12.78125 -11.179688 12.59375 -10.566406 12.21875 -10.015625 C 11.851562 -9.460938 11.328125 -9.035156 10.640625 -8.734375 L 10.640625 -8.5 C 11.691406 -8.25 12.484375 -7.78125 13.015625 -7.09375 C 13.554688 -6.414062 13.828125 -5.566406 13.828125 -4.546875 C 13.828125 -3.085938 13.398438 -1.960938 12.546875 -1.171875 C 11.691406 -0.390625 10.425781 0 8.75 0 Z M 8.21875 -9.078125 C 9.082031 -9.078125 9.753906 -9.300781 10.234375 -9.75 C 10.710938 -10.207031 10.953125 -10.835938 10.953125 -11.640625 C 10.953125 -12.472656 10.71875 -13.097656 10.25 -13.515625 C 9.789062 -13.929688 9.113281 -14.140625 8.21875 -14.140625 L 4.203125 -14.140625 L 4.203125 -9.078125 Z M 8.609375 -1.515625 C 10.835938 -1.515625 11.953125 -2.523438 11.953125 -4.546875 C 11.953125 -6.554688 10.835938 -7.5625 8.609375 -7.5625 L 4.203125 -7.5625 L 4.203125 -1.515625 Z M 8.609375 -1.515625 "/></g></g></g><g fill="#ffffff" fill-opacity="1"><g transform="translate(462.120296, 163.85156)"><g><path d="M 2.0625 0 L 2.0625 -11.8125 L 3.71875 -11.8125 L 3.71875 -9.96875 L 3.9375 -9.90625 C 4.488281 -11.25 5.523438 -11.921875 7.046875 -11.921875 C 7.859375 -11.921875 8.460938 -11.773438 8.859375 -11.484375 L 8.40625 -10 L 8.1875 -9.96875 C 7.75 -10.1875 7.265625 -10.296875 6.734375 -10.296875 C 5.796875 -10.296875 5.070312 -9.941406 4.5625 -9.234375 C 4.050781 -8.523438 3.796875 -7.378906 3.796875 -5.796875 L 3.796875 0 Z M 2.0625 0 "/></g></g></g><g fill="#ffffff" fill-opacity="1"><g transform="translate(471.247407, 163.85156)"><g><path d="M 2.9375 -14.09375 C 2.5625 -14.09375 2.257812 -14.207031 2.03125 -14.4375 C 1.800781 -14.675781 1.6875 -14.972656 1.6875 -15.328125 C 1.6875 -15.679688 1.800781 -15.972656 2.03125 -16.203125 C 2.257812 -16.441406 2.5625 -16.5625 2.9375 -16.5625 C 3.300781 -16.5625 3.597656 -16.441406 3.828125 -16.203125 C 4.066406 -15.972656 4.1875 -15.679688 4.1875 -15.328125 C 4.1875 -14.972656 4.066406 -14.675781 3.828125 -14.4375 C 3.597656 -14.207031 3.300781 -14.09375 2.9375 -14.09375 Z M 2.0625 0 L 2.0625 -11.8125 L 3.796875 -11.8125 L 3.796875 0 Z M 2.0625 0 "/></g></g></g><g fill="#ffffff" fill-opacity="1"><g transform="translate(477.107204, 163.85156)"><g><path d="M 2.0625 0 L 2.0625 -11.8125 L 3.71875 -11.8125 L 3.71875 -9.96875 L 3.9375 -9.90625 C 4.332031 -10.601562 4.832031 -11.132812 5.4375 -11.5 C 6.050781 -11.863281 6.800781 -12.046875 7.6875 -12.046875 C 9.101562 -12.046875 10.128906 -11.679688 10.765625 -10.953125 C 11.410156 -10.222656 11.734375 -9.109375 11.734375 -7.609375 L 11.734375 0 L 9.984375 0 L 9.984375 -7.5625 C 9.984375 -8.28125 9.890625 -8.851562 9.703125 -9.28125 C 9.523438 -9.71875 9.242188 -10.03125 8.859375 -10.21875 C 8.484375 -10.414062 7.984375 -10.515625 7.359375 -10.515625 C 6.296875 -10.515625 5.4375 -10.160156 4.78125 -9.453125 C 4.125 -8.753906 3.796875 -7.625 3.796875 -6.0625 L 3.796875 0 Z M 2.0625 0 "/></g></g></g><g fill="#ffffff" fill-opacity="1"><g transform="translate(490.712216, 163.85156)"><g><path d="M 6.078125 5.015625 C 4.210938 5.015625 2.851562 4.703125 2 4.078125 C 1.144531 3.460938 0.71875 2.640625 0.71875 1.609375 C 0.71875 0.941406 0.914062 0.410156 1.3125 0.015625 C 1.71875 -0.367188 2.300781 -0.648438 3.0625 -0.828125 L 3.0625 -1.046875 C 2.695312 -1.253906 2.421875 -1.5 2.234375 -1.78125 C 2.054688 -2.0625 1.96875 -2.394531 1.96875 -2.78125 C 1.96875 -3.226562 2.113281 -3.59375 2.40625 -3.875 C 2.695312 -4.164062 3.128906 -4.390625 3.703125 -4.546875 L 3.703125 -4.765625 C 2.410156 -5.441406 1.765625 -6.546875 1.765625 -8.078125 C 1.765625 -8.847656 1.9375 -9.53125 2.28125 -10.125 C 2.632812 -10.726562 3.132812 -11.195312 3.78125 -11.53125 C 4.4375 -11.875 5.195312 -12.046875 6.0625 -12.046875 C 7.050781 -12.046875 7.878906 -11.828125 8.546875 -11.390625 C 8.796875 -11.660156 8.984375 -11.953125 9.109375 -12.265625 C 9.234375 -12.585938 9.3125 -12.953125 9.34375 -13.359375 L 9.578125 -13.5 L 11.015625 -13.15625 C 10.941406 -12.550781 10.757812 -12.039062 10.46875 -11.625 C 10.175781 -11.21875 9.769531 -10.878906 9.25 -10.609375 L 9.25 -10.375 C 9.625 -10.082031 9.898438 -9.734375 10.078125 -9.328125 C 10.265625 -8.921875 10.359375 -8.453125 10.359375 -7.921875 C 10.359375 -7.171875 10.175781 -6.5 9.8125 -5.90625 C 9.457031 -5.320312 8.957031 -4.859375 8.3125 -4.515625 C 7.664062 -4.171875 6.914062 -4 6.0625 -4 C 5.957031 -4 5.78125 -4.007812 5.53125 -4.03125 C 5.238281 -4.039062 5.023438 -4.046875 4.890625 -4.046875 C 4.523438 -4.046875 4.226562 -3.945312 4 -3.75 C 3.78125 -3.5625 3.671875 -3.316406 3.671875 -3.015625 C 3.671875 -2.648438 3.789062 -2.378906 4.03125 -2.203125 C 4.269531 -2.023438 4.664062 -1.925781 5.21875 -1.90625 L 8.015625 -1.8125 C 9.222656 -1.769531 10.113281 -1.488281 10.6875 -0.96875 C 11.269531 -0.445312 11.5625 0.285156 11.5625 1.234375 C 11.5625 1.941406 11.375 2.578125 11 3.140625 C 10.625 3.710938 10.023438 4.164062 9.203125 4.5 C 8.378906 4.84375 7.335938 5.015625 6.078125 5.015625 Z M 6.0625 -5.5 C 6.894531 -5.5 7.539062 -5.71875 8 -6.15625 C 8.457031 -6.59375 8.6875 -7.203125 8.6875 -7.984375 C 8.6875 -8.804688 8.457031 -9.4375 8 -9.875 C 7.550781 -10.320312 6.90625 -10.546875 6.0625 -10.546875 C 5.21875 -10.546875 4.570312 -10.320312 4.125 -9.875 C 3.6875 -9.4375 3.46875 -8.804688 3.46875 -7.984375 C 3.46875 -7.191406 3.6875 -6.578125 4.125 -6.140625 C 4.570312 -5.710938 5.21875 -5.5 6.0625 -5.5 Z M 6.078125 3.515625 C 6.953125 3.515625 7.664062 3.414062 8.21875 3.21875 C 8.769531 3.03125 9.164062 2.773438 9.40625 2.453125 C 9.65625 2.140625 9.78125 1.785156 9.78125 1.390625 C 9.78125 1.046875 9.710938 0.765625 9.578125 0.546875 C 9.453125 0.328125 9.238281 0.164062 8.9375 0.0625 C 8.644531 -0.0390625 8.25 -0.109375 7.75 -0.140625 L 5.09375 -0.265625 L 4.71875 -0.265625 C 3.238281 -0.242188 2.5 0.328125 2.5 1.453125 C 2.5 2.828125 3.691406 3.515625 6.078125 3.515625 Z M 6.078125 3.515625 "/></g></g></g><g fill="#ffffff" fill-opacity="1"><g transform="translate(502.81744, 163.85156)"><g><path d="M 5.390625 0.21875 C 4.648438 0.21875 3.960938 0.125 3.328125 -0.0625 C 2.691406 -0.257812 2.15625 -0.53125 1.71875 -0.875 C 1.289062 -1.21875 0.984375 -1.601562 0.796875 -2.03125 L 1.828125 -3.109375 L 2.0625 -3.109375 C 2.445312 -2.523438 2.910156 -2.082031 3.453125 -1.78125 C 3.992188 -1.488281 4.640625 -1.34375 5.390625 -1.34375 C 6.253906 -1.34375 6.914062 -1.507812 7.375 -1.84375 C 7.832031 -2.1875 8.0625 -2.660156 8.0625 -3.265625 C 8.0625 -3.734375 7.921875 -4.117188 7.640625 -4.421875 C 7.367188 -4.722656 6.925781 -4.945312 6.3125 -5.09375 L 4.3125 -5.59375 C 3.25 -5.851562 2.472656 -6.257812 1.984375 -6.8125 C 1.492188 -7.363281 1.25 -8.050781 1.25 -8.875 C 1.25 -9.519531 1.410156 -10.078125 1.734375 -10.546875 C 2.066406 -11.023438 2.539062 -11.394531 3.15625 -11.65625 C 3.78125 -11.914062 4.515625 -12.046875 5.359375 -12.046875 C 6.453125 -12.046875 7.3125 -11.890625 7.9375 -11.578125 C 8.5625 -11.273438 9.046875 -10.851562 9.390625 -10.3125 L 8.40625 -9.34375 L 8.1875 -9.34375 C 7.8125 -9.78125 7.398438 -10.09375 6.953125 -10.28125 C 6.503906 -10.476562 5.972656 -10.578125 5.359375 -10.578125 C 4.585938 -10.578125 3.992188 -10.4375 3.578125 -10.15625 C 3.160156 -9.882812 2.953125 -9.484375 2.953125 -8.953125 C 2.953125 -8.472656 3.097656 -8.085938 3.390625 -7.796875 C 3.679688 -7.503906 4.191406 -7.269531 4.921875 -7.09375 L 6.890625 -6.625 C 7.921875 -6.375 8.660156 -5.96875 9.109375 -5.40625 C 9.566406 -4.84375 9.796875 -4.132812 9.796875 -3.28125 C 9.796875 -2.59375 9.628906 -1.984375 9.296875 -1.453125 C 8.972656 -0.929688 8.476562 -0.519531 7.8125 -0.21875 C 7.15625 0.0703125 6.347656 0.21875 5.390625 0.21875 Z M 5.390625 0.21875 "/></g></g></g><g fill="#ffffff" fill-opacity="1"><g transform="translate(513.744313, 163.85156)"><g/></g></g><g fill="#ffffff" fill-opacity="1"><g transform="translate(519.122049, 163.85156)"><g><path d="M 14.09375 0 L 12.125 0 L 10.671875 -4.296875 L 4 -4.296875 L 2.546875 0 L 0.625 0 L 6.078125 -15.65625 L 8.640625 -15.65625 Z M 7.203125 -13.765625 L 4.515625 -5.84375 L 10.15625 -5.84375 L 7.484375 -13.765625 Z M 7.203125 -13.765625 "/></g></g></g><g fill="#ffffff" fill-opacity="1"><g transform="translate(533.84117, 163.85156)"><g><path d="M 6.125 0.21875 C 5.175781 0.21875 4.335938 -0.00390625 3.609375 -0.453125 C 2.890625 -0.910156 2.320312 -1.59375 1.90625 -2.5 C 1.5 -3.414062 1.296875 -4.550781 1.296875 -5.90625 C 1.296875 -7.25 1.507812 -8.378906 1.9375 -9.296875 C 2.363281 -10.210938 2.953125 -10.898438 3.703125 -11.359375 C 4.460938 -11.816406 5.335938 -12.046875 6.328125 -12.046875 C 7.117188 -12.046875 7.828125 -11.894531 8.453125 -11.59375 C 9.078125 -11.300781 9.613281 -10.816406 10.0625 -10.140625 L 10.296875 -10.171875 L 10.296875 -16.5625 L 12.046875 -16.5625 L 12.046875 0 L 10.296875 0 L 10.296875 -1.71875 L 10.0625 -1.765625 C 9.675781 -1.179688 9.15625 -0.703125 8.5 -0.328125 C 7.84375 0.0351562 7.050781 0.21875 6.125 0.21875 Z M 6.671875 -1.34375 C 7.773438 -1.34375 8.65625 -1.71875 9.3125 -2.46875 C 9.96875 -3.21875 10.296875 -4.363281 10.296875 -5.90625 C 10.296875 -7.445312 9.96875 -8.59375 9.3125 -9.34375 C 8.65625 -10.09375 7.773438 -10.46875 6.671875 -10.46875 C 5.535156 -10.46875 4.660156 -10.097656 4.046875 -9.359375 C 3.429688 -8.628906 3.125 -7.476562 3.125 -5.90625 C 3.125 -2.863281 4.304688 -1.34375 6.671875 -1.34375 Z M 6.671875 -1.34375 "/></g></g></g><g fill="#ffffff" fill-opacity="1"><g transform="translate(547.949656, 163.85156)"><g><path d="M 7.484375 0 L 5.078125 0 L 0.578125 -11.8125 L 2.46875 -11.8125 L 6.1875 -2 L 6.421875 -2 L 10.109375 -11.8125 L 11.953125 -11.8125 Z M 7.484375 0 "/></g></g></g><g fill="#ffffff" fill-opacity="1"><g transform="translate(560.472701, 163.85156)"><g><path d="M 11.265625 -5.5 L 3.140625 -5.5 C 3.191406 -4.070312 3.535156 -3.019531 4.171875 -2.34375 C 4.804688 -1.675781 5.679688 -1.34375 6.796875 -1.34375 C 7.640625 -1.34375 8.316406 -1.488281 8.828125 -1.78125 C 9.347656 -2.082031 9.753906 -2.554688 10.046875 -3.203125 L 10.265625 -3.203125 L 11.40625 -2.53125 C 11.0625 -1.675781 10.515625 -1.003906 9.765625 -0.515625 C 9.015625 -0.0234375 8.023438 0.21875 6.796875 0.21875 C 5.660156 0.21875 4.679688 -0.00390625 3.859375 -0.453125 C 3.035156 -0.898438 2.398438 -1.578125 1.953125 -2.484375 C 1.515625 -3.398438 1.296875 -4.539062 1.296875 -5.90625 C 1.296875 -7.25 1.53125 -8.378906 2 -9.296875 C 2.46875 -10.210938 3.101562 -10.898438 3.90625 -11.359375 C 4.71875 -11.816406 5.644531 -12.046875 6.6875 -12.046875 C 8.207031 -12.046875 9.390625 -11.617188 10.234375 -10.765625 C 11.085938 -9.910156 11.519531 -8.644531 11.53125 -6.96875 C 11.53125 -6.3125 11.515625 -5.867188 11.484375 -5.640625 Z M 9.796875 -6.96875 C 9.773438 -8.21875 9.5 -9.128906 8.96875 -9.703125 C 8.4375 -10.273438 7.675781 -10.5625 6.6875 -10.5625 C 5.65625 -10.5625 4.84375 -10.273438 4.25 -9.703125 C 3.664062 -9.128906 3.3125 -8.21875 3.1875 -6.96875 Z M 9.796875 -6.96875 "/></g></g></g><g fill="#ffffff" fill-opacity="1"><g transform="translate(573.070716, 163.85156)"><g><path d="M 2.0625 0 L 2.0625 -11.8125 L 3.71875 -11.8125 L 3.71875 -9.96875 L 3.9375 -9.90625 C 4.332031 -10.601562 4.832031 -11.132812 5.4375 -11.5 C 6.050781 -11.863281 6.800781 -12.046875 7.6875 -12.046875 C 9.101562 -12.046875 10.128906 -11.679688 10.765625 -10.953125 C 11.410156 -10.222656 11.734375 -9.109375 11.734375 -7.609375 L 11.734375 0 L 9.984375 0 L 9.984375 -7.5625 C 9.984375 -8.28125 9.890625 -8.851562 9.703125 -9.28125 C 9.523438 -9.71875 9.242188 -10.03125 8.859375 -10.21875 C 8.484375 -10.414062 7.984375 -10.515625 7.359375 -10.515625 C 6.296875 -10.515625 5.4375 -10.160156 4.78125 -9.453125 C 4.125 -8.753906 3.796875 -7.625 3.796875 -6.0625 L 3.796875 0 Z M 2.0625 0 "/></g></g></g><g fill="#ffffff" fill-opacity="1"><g transform="translate(586.675728, 163.85156)"><g><path d="M 7.984375 -1.875 L 8.546875 -0.625 C 8.265625 -0.34375 7.894531 -0.132812 7.4375 0 C 6.988281 0.144531 6.503906 0.21875 5.984375 0.21875 C 3.722656 0.21875 2.59375 -0.921875 2.59375 -3.203125 L 2.59375 -10.390625 L 0.53125 -10.390625 L 0.53125 -11.828125 L 2.59375 -11.828125 L 2.59375 -14.328125 L 4.34375 -14.609375 L 4.34375 -11.828125 L 8.140625 -11.828125 L 8.140625 -10.390625 L 4.34375 -10.390625 L 4.34375 -3.375 C 4.34375 -2.019531 4.929688 -1.34375 6.109375 -1.34375 C 6.742188 -1.34375 7.296875 -1.519531 7.765625 -1.875 Z M 7.984375 -1.875 "/></g></g></g><g fill="#ffffff" fill-opacity="1"><g transform="translate(595.67431, 163.85156)"><g><path d="M 5.84375 0.21875 C 4.5 0.21875 3.5 -0.128906 2.84375 -0.828125 C 2.195312 -1.535156 1.875 -2.570312 1.875 -3.9375 L 1.875 -11.8125 L 3.625 -11.8125 L 3.625 -3.984375 C 3.625 -2.191406 4.46875 -1.296875 6.15625 -1.296875 C 7.21875 -1.296875 8.0625 -1.644531 8.6875 -2.34375 C 9.3125 -3.039062 9.625 -4.175781 9.625 -5.75 L 9.625 -11.8125 L 11.359375 -11.8125 L 11.359375 0 L 9.71875 0 L 9.71875 -1.859375 L 9.484375 -1.90625 C 9.078125 -1.1875 8.585938 -0.648438 8.015625 -0.296875 C 7.453125 0.046875 6.726562 0.21875 5.84375 0.21875 Z M 5.84375 0.21875 "/></g></g></g><g fill="#ffffff" fill-opacity="1"><g transform="translate(609.09719, 163.85156)"><g><path d="M 2.0625 0 L 2.0625 -11.8125 L 3.71875 -11.8125 L 3.71875 -9.96875 L 3.9375 -9.90625 C 4.488281 -11.25 5.523438 -11.921875 7.046875 -11.921875 C 7.859375 -11.921875 8.460938 -11.773438 8.859375 -11.484375 L 8.40625 -10 L 8.1875 -9.96875 C 7.75 -10.1875 7.265625 -10.296875 6.734375 -10.296875 C 5.796875 -10.296875 5.070312 -9.941406 4.5625 -9.234375 C 4.050781 -8.523438 3.796875 -7.378906 3.796875 -5.796875 L 3.796875 0 Z M 2.0625 0 "/></g></g></g><g fill="#ffffff" fill-opacity="1"><g transform="translate(618.224301, 163.85156)"><g><path d="M 11.265625 -5.5 L 3.140625 -5.5 C 3.191406 -4.070312 3.535156 -3.019531 4.171875 -2.34375 C 4.804688 -1.675781 5.679688 -1.34375 6.796875 -1.34375 C 7.640625 -1.34375 8.316406 -1.488281 8.828125 -1.78125 C 9.347656 -2.082031 9.753906 -2.554688 10.046875 -3.203125 L 10.265625 -3.203125 L 11.40625 -2.53125 C 11.0625 -1.675781 10.515625 -1.003906 9.765625 -0.515625 C 9.015625 -0.0234375 8.023438 0.21875 6.796875 0.21875 C 5.660156 0.21875 4.679688 -0.00390625 3.859375 -0.453125 C 3.035156 -0.898438 2.398438 -1.578125 1.953125 -2.484375 C 1.515625 -3.398438 1.296875 -4.539062 1.296875 -5.90625 C 1.296875 -7.25 1.53125 -8.378906 2 -9.296875 C 2.46875 -10.210938 3.101562 -10.898438 3.90625 -11.359375 C 4.71875 -11.816406 5.644531 -12.046875 6.6875 -12.046875 C 8.207031 -12.046875 9.390625 -11.617188 10.234375 -10.765625 C 11.085938 -9.910156 11.519531 -8.644531 11.53125 -6.96875 C 11.53125 -6.3125 11.515625 -5.867188 11.484375 -5.640625 Z M 9.796875 -6.96875 C 9.773438 -8.21875 9.5 -9.128906 8.96875 -9.703125 C 8.4375 -10.273438 7.675781 -10.5625 6.6875 -10.5625 C 5.65625 -10.5625 4.84375 -10.273438 4.25 -9.703125 C 3.664062 -9.128906 3.3125 -8.21875 3.1875 -6.96875 Z M 9.796875 -6.96875 "/></g></g></g><g fill="#ffffff" fill-opacity="1"><g transform="translate(630.822316, 163.85156)"><g><path d="M 4.28125 -5.1875 L 2.484375 -5.1875 L 2.484375 -15.65625 L 4.28125 -15.65625 Z M 3.375 0.109375 C 2.96875 0.109375 2.644531 -0.00390625 2.40625 -0.234375 C 2.175781 -0.460938 2.0625 -0.765625 2.0625 -1.140625 C 2.0625 -1.515625 2.175781 -1.820312 2.40625 -2.0625 C 2.644531 -2.300781 2.96875 -2.421875 3.375 -2.421875 C 3.789062 -2.421875 4.113281 -2.304688 4.34375 -2.078125 C 4.582031 -1.847656 4.703125 -1.546875 4.703125 -1.171875 C 4.703125 -0.785156 4.582031 -0.472656 4.34375 -0.234375 C 4.101562 -0.00390625 3.78125 0.109375 3.375 0.109375 Z M 3.375 0.109375 "/></g></g></g></svg>